<mxfile host="65bd71144e">
    <diagram id="90PpnR-5AJBD1PZd6F79" name="Page-1">
        <mxGraphModel dx="2035" dy="1156" grid="1" gridSize="10" guides="1" tooltips="1" connect="1" arrows="1" fold="1" page="0" pageScale="1" pageWidth="850" pageHeight="1100" math="0" shadow="0">
            <root>
                <mxCell id="0"/>
                <mxCell id="1" parent="0"/>
                <mxCell id="2" value="visiteur" style="shape=umlActor;verticalLabelPosition=bottom;verticalAlign=top;html=1;" parent="1" vertex="1">
                    <mxGeometry x="60" y="70" width="30" height="60" as="geometry"/>
                </mxCell>
                <mxCell id="3" value="auteur" style="shape=umlActor;verticalLabelPosition=bottom;verticalAlign=top;html=1;" parent="1" vertex="1">
                    <mxGeometry x="50" y="640" width="30" height="60" as="geometry"/>
                </mxCell>
                <mxCell id="6" value="admin" style="shape=umlActor;verticalLabelPosition=bottom;verticalAlign=top;html=1;" parent="1" vertex="1">
                    <mxGeometry x="40" y="1000" width="30" height="60" as="geometry"/>
                </mxCell>
                <mxCell id="8" value="CN" style="shape=umlFrame;whiteSpace=wrap;html=1;" parent="1" vertex="1">
                    <mxGeometry x="125" width="665" height="1490" as="geometry"/>
                </mxCell>
                <mxCell id="9" value="&lt;span id=&quot;docs-internal-guid-ddb64d50-7fff-d113-fe8a-77f74b7be55a&quot; style=&quot;font-size: 11pt; font-family: Roboto, sans-serif; background-color: transparent; font-variant-numeric: normal; font-variant-east-asian: normal; font-variant-alternates: normal; vertical-align: baseline;&quot;&gt;&lt;font color=&quot;#ffffff&quot;&gt;la page d'accueil pour voir les&amp;nbsp;&lt;br&gt;news&lt;br&gt;&lt;/font&gt;&lt;/span&gt;" style="ellipse;whiteSpace=wrap;html=1;" parent="1" vertex="1">
                    <mxGeometry x="202.5" y="5" width="255" height="80" as="geometry"/>
                </mxCell>
                <mxCell id="10" value="voir les détails des&amp;nbsp;&lt;span style=&quot;color: rgb(255, 255, 255); font-family: Roboto, sans-serif; font-size: 14.6667px;&quot;&gt;dernières nouvelles&lt;/span&gt;" style="ellipse;whiteSpace=wrap;html=1;" parent="1" vertex="1">
                    <mxGeometry x="235" y="90" width="190" height="70" as="geometry"/>
                </mxCell>
                <mxCell id="11" value="rechercher sur les infos , des categories" style="ellipse;whiteSpace=wrap;html=1;" parent="1" vertex="1">
                    <mxGeometry x="240" y="180" width="190" height="70" as="geometry"/>
                </mxCell>
                <mxCell id="12" value="créer un compte&amp;nbsp;" style="ellipse;whiteSpace=wrap;html=1;" parent="1" vertex="1">
                    <mxGeometry x="250" y="270" width="190" height="70" as="geometry"/>
                </mxCell>
                <mxCell id="21" value="associer une seule categorie a leurs articles" style="ellipse;whiteSpace=wrap;html=1;" parent="1" vertex="1">
                    <mxGeometry x="240" y="560" width="190" height="70" as="geometry"/>
                </mxCell>
                <mxCell id="22" value="créer, modifier et supprimer leur propre&amp;nbsp;&lt;span id=&quot;docs-internal-guid-c0ec1c68-7fff-35f1-5477-bd1ad6d388c2&quot; style=&quot;font-size: 11pt; font-family: Roboto, sans-serif; background-color: transparent; font-variant-numeric: normal; font-variant-east-asian: normal; font-variant-alternates: normal; vertical-align: baseline;&quot;&gt;&lt;font color=&quot;#ffffff&quot;&gt;articles&lt;/font&gt;&lt;/span&gt;" style="ellipse;whiteSpace=wrap;html=1;" parent="1" vertex="1">
                    <mxGeometry x="247.5" y="660" width="190" height="70" as="geometry"/>
                </mxCell>
                <mxCell id="32" value="créer, modifier et supprimer des categories" style="ellipse;whiteSpace=wrap;html=1;" parent="1" vertex="1">
                    <mxGeometry x="280" y="1200" width="190" height="70" as="geometry"/>
                </mxCell>
                <mxCell id="34" value="refused les articles&lt;span style=&quot;background-color: transparent; font-size: 11pt; font-family: Roboto, sans-serif; color: rgb(43, 43, 46); font-variant-numeric: normal; font-variant-east-asian: normal; font-variant-alternates: normal; vertical-align: baseline;&quot; id=&quot;docs-internal-guid-054aefbb-7fff-e33c-0746-23c41df46ce0&quot;&gt;&amp;nbsp;&lt;/span&gt;&amp;nbsp;inappropriés" style="ellipse;whiteSpace=wrap;html=1;" parent="1" vertex="1">
                    <mxGeometry x="287.5" y="1390" width="190" height="70" as="geometry"/>
                </mxCell>
                <mxCell id="33" value="archiver les articles&lt;span id=&quot;docs-internal-guid-054aefbb-7fff-e33c-0746-23c41df46ce0&quot; style=&quot;font-size: 11pt; font-family: Roboto, sans-serif; color: rgb(43, 43, 46); background-color: transparent; font-variant-numeric: normal; font-variant-east-asian: normal; font-variant-alternates: normal; vertical-align: baseline;&quot;&gt;&amp;nbsp;&lt;/span&gt;&amp;nbsp;inappropriés" style="ellipse;whiteSpace=wrap;html=1;" parent="1" vertex="1">
                    <mxGeometry x="280" y="1300" width="190" height="70" as="geometry"/>
                </mxCell>
                <mxCell id="25" value="authentification" style="ellipse;whiteSpace=wrap;html=1;" parent="1" vertex="1">
                    <mxGeometry x="590" y="530" width="190" height="70" as="geometry"/>
                </mxCell>
                <mxCell id="14" value="" style="endArrow=none;html=1;exitX=0.5;exitY=0.5;exitDx=0;exitDy=0;exitPerimeter=0;entryX=0;entryY=0.5;entryDx=0;entryDy=0;" parent="1" source="2" target="9" edge="1">
                    <mxGeometry width="50" height="50" relative="1" as="geometry">
                        <mxPoint x="360" y="320" as="sourcePoint"/>
                        <mxPoint x="410" y="270" as="targetPoint"/>
                    </mxGeometry>
                </mxCell>
                <mxCell id="15" value="" style="endArrow=none;html=1;exitX=0.5;exitY=0.5;exitDx=0;exitDy=0;exitPerimeter=0;" parent="1" source="2" target="11" edge="1">
                    <mxGeometry width="50" height="50" relative="1" as="geometry">
                        <mxPoint x="85" y="110" as="sourcePoint"/>
                        <mxPoint x="229.9999999999999" y="55" as="targetPoint"/>
                    </mxGeometry>
                </mxCell>
                <mxCell id="16" value="" style="endArrow=none;html=1;exitX=0.5;exitY=0.5;exitDx=0;exitDy=0;exitPerimeter=0;entryX=0;entryY=0.5;entryDx=0;entryDy=0;" parent="1" source="2" target="10" edge="1">
                    <mxGeometry width="50" height="50" relative="1" as="geometry">
                        <mxPoint x="95" y="119.99999999999989" as="sourcePoint"/>
                        <mxPoint x="239.9999999999999" y="65" as="targetPoint"/>
                    </mxGeometry>
                </mxCell>
                <mxCell id="19" value="" style="endArrow=classic;html=1;exitX=0.5;exitY=0;exitDx=0;exitDy=0;exitPerimeter=0;" parent="1" source="3" edge="1" target="91">
                    <mxGeometry width="50" height="50" relative="1" as="geometry">
                        <mxPoint x="180" y="320" as="sourcePoint"/>
                        <mxPoint x="65" y="160" as="targetPoint"/>
                        <Array as="points">
                            <mxPoint x="80" y="440"/>
                        </Array>
                    </mxGeometry>
                </mxCell>
                <mxCell id="23" value="" style="endArrow=none;html=1;exitX=0.5;exitY=0.5;exitDx=0;exitDy=0;exitPerimeter=0;entryX=0;entryY=0.5;entryDx=0;entryDy=0;" parent="1" source="3" target="21" edge="1">
                    <mxGeometry width="50" height="50" relative="1" as="geometry">
                        <mxPoint x="290" y="460" as="sourcePoint"/>
                        <mxPoint x="340" y="410" as="targetPoint"/>
                    </mxGeometry>
                </mxCell>
                <mxCell id="24" value="" style="endArrow=none;html=1;entryX=0;entryY=0.5;entryDx=0;entryDy=0;exitX=0.5;exitY=0.5;exitDx=0;exitDy=0;exitPerimeter=0;" parent="1" source="3" target="22" edge="1">
                    <mxGeometry width="50" height="50" relative="1" as="geometry">
                        <mxPoint x="90" y="460" as="sourcePoint"/>
                        <mxPoint x="250.0000000000001" y="420" as="targetPoint"/>
                    </mxGeometry>
                </mxCell>
                <mxCell id="35" value="" style="endArrow=none;html=1;entryX=0;entryY=0.5;entryDx=0;entryDy=0;exitX=0.5;exitY=0.5;exitDx=0;exitDy=0;exitPerimeter=0;" parent="1" source="6" target="33" edge="1">
                    <mxGeometry width="50" height="50" relative="1" as="geometry">
                        <mxPoint x="75" y="460" as="sourcePoint"/>
                        <mxPoint x="270.00000000000034" y="505" as="targetPoint"/>
                    </mxGeometry>
                </mxCell>
                <mxCell id="36" value="" style="endArrow=none;html=1;entryX=0;entryY=0.5;entryDx=0;entryDy=0;exitX=0.5;exitY=0.5;exitDx=0;exitDy=0;exitPerimeter=0;" parent="1" source="6" target="34" edge="1">
                    <mxGeometry width="50" height="50" relative="1" as="geometry">
                        <mxPoint x="85" y="470" as="sourcePoint"/>
                        <mxPoint x="280.00000000000034" y="515" as="targetPoint"/>
                    </mxGeometry>
                </mxCell>
                <mxCell id="37" value="" style="endArrow=none;html=1;entryX=0;entryY=0.5;entryDx=0;entryDy=0;exitX=0.5;exitY=0.5;exitDx=0;exitDy=0;exitPerimeter=0;" parent="1" source="6" target="32" edge="1">
                    <mxGeometry width="50" height="50" relative="1" as="geometry">
                        <mxPoint x="95" y="480" as="sourcePoint"/>
                        <mxPoint x="290.00000000000034" y="525" as="targetPoint"/>
                    </mxGeometry>
                </mxCell>
                <mxCell id="46" value="" style="endArrow=none;dashed=1;endFill=0;endSize=12;html=1;exitX=1;exitY=0.5;exitDx=0;exitDy=0;entryX=0;entryY=0.5;entryDx=0;entryDy=0;" parent="1" source="33" target="44" edge="1">
                    <mxGeometry width="160" relative="1" as="geometry">
                        <mxPoint x="450" y="675" as="sourcePoint"/>
                        <mxPoint x="607" y="596.22" as="targetPoint"/>
                    </mxGeometry>
                </mxCell>
                <mxCell id="44" value="&amp;lt;include&amp;gt;" style="text;html=1;strokeColor=none;fillColor=none;align=center;verticalAlign=middle;whiteSpace=wrap;rounded=0;rotation=-89;" parent="1" vertex="1">
                    <mxGeometry x="680" y="800" width="60" height="30" as="geometry"/>
                </mxCell>
                <mxCell id="48" value="" style="endArrow=none;dashed=1;endFill=0;endSize=12;html=1;exitX=1;exitY=0.5;exitDx=0;exitDy=0;entryX=0;entryY=0.5;entryDx=0;entryDy=0;" parent="1" source="32" target="43" edge="1">
                    <mxGeometry width="160" relative="1" as="geometry">
                        <mxPoint x="450" y="595" as="sourcePoint"/>
                        <mxPoint x="470" y="595" as="targetPoint"/>
                    </mxGeometry>
                </mxCell>
                <mxCell id="43" value="&amp;lt;include&amp;gt;" style="text;html=1;strokeColor=none;fillColor=none;align=center;verticalAlign=middle;whiteSpace=wrap;rounded=0;rotation=-85;" parent="1" vertex="1">
                    <mxGeometry x="650" y="800" width="60" height="30" as="geometry"/>
                </mxCell>
                <mxCell id="49" value="" style="endArrow=none;dashed=1;endFill=0;endSize=12;html=1;exitX=1;exitY=0.5;exitDx=0;exitDy=0;entryX=0;entryY=0.5;entryDx=0;entryDy=0;" parent="1" source="34" target="45" edge="1">
                    <mxGeometry width="160" relative="1" as="geometry">
                        <mxPoint x="460" y="765" as="sourcePoint"/>
                        <mxPoint x="645" y="600" as="targetPoint"/>
                    </mxGeometry>
                </mxCell>
                <mxCell id="45" value="&amp;lt;include&amp;gt;" style="text;html=1;strokeColor=none;fillColor=none;align=center;verticalAlign=middle;whiteSpace=wrap;rounded=0;rotation=-90;" parent="1" vertex="1">
                    <mxGeometry x="710" y="810" width="60" height="30" as="geometry"/>
                </mxCell>
                <mxCell id="50" value="" style="endArrow=none;dashed=1;endFill=0;endSize=12;html=1;exitX=1;exitY=0.5;exitDx=0;exitDy=0;entryX=0;entryY=0.5;entryDx=0;entryDy=0;" parent="1" source="22" target="31" edge="1">
                    <mxGeometry width="160" relative="1" as="geometry">
                        <mxPoint x="450" y="495" as="sourcePoint"/>
                        <mxPoint x="480" y="510" as="targetPoint"/>
                    </mxGeometry>
                </mxCell>
                <mxCell id="31" value="&amp;lt;include&amp;gt;" style="text;html=1;strokeColor=none;fillColor=none;align=center;verticalAlign=middle;whiteSpace=wrap;rounded=0;rotation=-30;" parent="1" vertex="1">
                    <mxGeometry x="505" y="620" width="60" height="30" as="geometry"/>
                </mxCell>
                <mxCell id="51" value="" style="endArrow=none;dashed=1;endFill=0;endSize=12;html=1;exitX=1;exitY=0.5;exitDx=0;exitDy=0;entryX=0;entryY=0.5;entryDx=0;entryDy=0;" parent="1" source="21" target="29" edge="1">
                    <mxGeometry width="160" relative="1" as="geometry">
                        <mxPoint x="430" y="410.0000000000001" as="sourcePoint"/>
                        <mxPoint x="601.7252409048174" y="533.8421734514686" as="targetPoint"/>
                    </mxGeometry>
                </mxCell>
                <mxCell id="29" value="&amp;lt;include&amp;gt;" style="text;html=1;strokeColor=none;fillColor=none;align=center;verticalAlign=middle;whiteSpace=wrap;rounded=0;rotation=0;" parent="1" vertex="1">
                    <mxGeometry x="500" y="560" width="60" height="30" as="geometry"/>
                </mxCell>
                <mxCell id="53" value="" style="endArrow=open;endSize=12;dashed=1;html=1;entryX=1;entryY=1;entryDx=0;entryDy=0;exitX=1;exitY=0.5;exitDx=0;exitDy=0;" parent="1" source="45" target="25" edge="1">
                    <mxGeometry width="160" relative="1" as="geometry">
                        <mxPoint x="590" y="730" as="sourcePoint"/>
                        <mxPoint x="750" y="730" as="targetPoint"/>
                        <Array as="points"/>
                    </mxGeometry>
                </mxCell>
                <mxCell id="54" value="" style="endArrow=open;endSize=12;dashed=1;html=1;entryX=0.674;entryY=0.99;entryDx=0;entryDy=0;exitX=1;exitY=0.5;exitDx=0;exitDy=0;entryPerimeter=0;" parent="1" source="44" target="25" edge="1">
                    <mxGeometry width="160" relative="1" as="geometry">
                        <mxPoint x="660" y="670" as="sourcePoint"/>
                        <mxPoint x="660.43" y="590" as="targetPoint"/>
                        <Array as="points"/>
                    </mxGeometry>
                </mxCell>
                <mxCell id="55" value="" style="endArrow=open;endSize=12;dashed=1;html=1;entryX=0.579;entryY=0.857;entryDx=0;entryDy=0;exitX=1;exitY=0.5;exitDx=0;exitDy=0;entryPerimeter=0;" parent="1" source="43" target="25" edge="1">
                    <mxGeometry width="160" relative="1" as="geometry">
                        <mxPoint x="589.9977747886721" y="639.9954286469244" as="sourcePoint"/>
                        <mxPoint x="610.94" y="584.44" as="targetPoint"/>
                        <Array as="points"/>
                    </mxGeometry>
                </mxCell>
                <mxCell id="56" value="" style="endArrow=open;endSize=12;dashed=1;html=1;entryX=0.001;entryY=0.58;entryDx=0;entryDy=0;exitX=1;exitY=0.5;exitDx=0;exitDy=0;entryPerimeter=0;" parent="1" source="31" target="25" edge="1">
                    <mxGeometry width="160" relative="1" as="geometry">
                        <mxPoint x="539.8858409427523" y="599.3853277175704" as="sourcePoint"/>
                        <mxPoint x="620.94" y="594.44" as="targetPoint"/>
                        <Array as="points"/>
                    </mxGeometry>
                </mxCell>
                <mxCell id="57" value="" style="endArrow=open;endSize=12;dashed=1;html=1;exitX=1;exitY=0.5;exitDx=0;exitDy=0;entryX=0;entryY=0.5;entryDx=0;entryDy=0;" parent="1" source="29" target="25" edge="1">
                    <mxGeometry width="160" relative="1" as="geometry">
                        <mxPoint x="589.9977747886721" y="460.0045713530757" as="sourcePoint"/>
                        <mxPoint x="633.1099999999999" y="492.23" as="targetPoint"/>
                        <Array as="points"/>
                    </mxGeometry>
                </mxCell>
                <mxCell id="58" value="" style="endArrow=classic;html=1;exitX=0.296;exitY=-0.022;exitDx=0;exitDy=0;exitPerimeter=0;" parent="1" source="6" edge="1" target="91">
                    <mxGeometry width="50" height="50" relative="1" as="geometry">
                        <mxPoint x="72.5" y="640" as="sourcePoint"/>
                        <mxPoint x="49" y="160" as="targetPoint"/>
                        <Array as="points">
                            <mxPoint x="10" y="500"/>
                        </Array>
                    </mxGeometry>
                </mxCell>
                <mxCell id="59" value="&lt;span id=&quot;docs-internal-guid-1dfb4daf-7fff-4ff7-cc62-95b88ac4069a&quot; style=&quot;font-size: 11pt; font-family: Roboto, sans-serif; background-color: transparent; font-variant-numeric: normal; font-variant-east-asian: normal; font-variant-alternates: normal; vertical-align: baseline;&quot;&gt;&lt;font color=&quot;#ffffff&quot;&gt;commenter des articles pour partager mes opinions&lt;/font&gt;&lt;/span&gt;" style="ellipse;whiteSpace=wrap;html=1;" parent="1" vertex="1">
                    <mxGeometry x="235" y="480" width="210" height="70" as="geometry"/>
                </mxCell>
                <mxCell id="60" value="&lt;font color=&quot;#ffffff&quot;&gt;publier des articles avec un titre, du contenu et éventuellement des images, afin de partager des informations.&lt;/font&gt;" style="ellipse;whiteSpace=wrap;html=1;" parent="1" vertex="1">
                    <mxGeometry x="215" y="772.5" width="275" height="85" as="geometry"/>
                </mxCell>
                <mxCell id="61" value="&lt;font color=&quot;#ffffff&quot;&gt;&lt;span style=&quot;font-family: monospace; font-size: 0px; text-align: start;&quot;&gt;%3CmxGraphModel%3E%3Croot%3E%3CmxCell%20id%3D%220%22%2F%3E%3CmxCell%20id%3D%221%22%20parent%3D%220%22%2F%3E%3CmxCell%20id%3D%222%22%20value%3D%22%26lt%3Bfont%20color%3D%26quot%3B%23ffffff%26quot%3B%26gt%3Bpublier%20des%20articles%20avec%20un%20titre%2C%20du%20contenu%20et%20%C3%A9ventuellement%20des%20images%2C%20afin%20de%20partager%20des%20informations.%26lt%3B%2Ffont%26gt%3B%22%20style%3D%22ellipse%3BwhiteSpace%3Dwrap%3Bhtml%3D1%3B%22%20vertex%3D%221%22%20parent%3D%221%22%3E%3CmxGeometry%20x%3D%22195%22%20y%3D%22635%22%20width%3D%22275%22%20height%3D%2285%22%20as%3D%22geometry%22%2F%3E%3C%2FmxCell%3E%3C%2Froot%3E%3C%2FmxGraphModel%3E&lt;/span&gt;&lt;span id=&quot;docs-internal-guid-70ef907d-7fff-ec3e-32d5-034d786483bd&quot; style=&quot;font-size: 11pt; font-family: Roboto, sans-serif; background-color: transparent; font-variant-numeric: normal; font-variant-east-asian: normal; font-variant-alternates: normal; vertical-align: baseline;&quot;&gt;modifier les commentaires et supprimer&amp;nbsp;&lt;/span&gt;&lt;/font&gt;" style="ellipse;whiteSpace=wrap;html=1;" parent="1" vertex="1">
                    <mxGeometry x="230" y="1090" width="275" height="85" as="geometry"/>
                </mxCell>
                <mxCell id="64" value="filtrer les articles par catégories, et auteurs pour une recherche plus précise" style="ellipse;whiteSpace=wrap;html=1;" parent="1" vertex="1">
                    <mxGeometry x="215" y="870" width="275" height="85" as="geometry"/>
                </mxCell>
                <mxCell id="65" value="&lt;span id=&quot;docs-internal-guid-e6179e0c-7fff-e50f-cfe3-e376f6c71e14&quot; style=&quot;font-size: 11pt; font-family: Roboto, sans-serif; background-color: transparent; font-variant-numeric: normal; font-variant-east-asian: normal; font-variant-alternates: normal; vertical-align: baseline;&quot;&gt;&lt;font color=&quot;#ffffff&quot;&gt;&amp;nbsp;affichant mes articles publiés et mes activités récentes&lt;/font&gt;&lt;/span&gt;" style="ellipse;whiteSpace=wrap;html=1;" parent="1" vertex="1">
                    <mxGeometry x="215" y="975" width="275" height="85" as="geometry"/>
                </mxCell>
                <mxCell id="67" value="" style="endArrow=none;html=1;entryX=0;entryY=0.5;entryDx=0;entryDy=0;" parent="1" target="60" edge="1">
                    <mxGeometry width="50" height="50" relative="1" as="geometry">
                        <mxPoint x="70" y="670" as="sourcePoint"/>
                        <mxPoint x="250" y="595" as="targetPoint"/>
                    </mxGeometry>
                </mxCell>
                <mxCell id="69" value="" style="endArrow=none;html=1;entryX=0;entryY=0.5;entryDx=0;entryDy=0;exitX=0.5;exitY=0.5;exitDx=0;exitDy=0;exitPerimeter=0;" parent="1" source="3" target="64" edge="1">
                    <mxGeometry width="50" height="50" relative="1" as="geometry">
                        <mxPoint x="80" y="670" as="sourcePoint"/>
                        <mxPoint x="240" y="777.5" as="targetPoint"/>
                    </mxGeometry>
                </mxCell>
                <mxCell id="70" value="" style="endArrow=none;html=1;entryX=0;entryY=0.5;entryDx=0;entryDy=0;exitX=0.5;exitY=0.5;exitDx=0;exitDy=0;exitPerimeter=0;" parent="1" source="3" target="65" edge="1">
                    <mxGeometry width="50" height="50" relative="1" as="geometry">
                        <mxPoint x="75" y="680" as="sourcePoint"/>
                        <mxPoint x="240" y="872.5" as="targetPoint"/>
                    </mxGeometry>
                </mxCell>
                <mxCell id="71" value="" style="endArrow=none;html=1;entryX=0;entryY=0.5;entryDx=0;entryDy=0;exitX=0.5;exitY=0.5;exitDx=0;exitDy=0;exitPerimeter=0;" parent="1" source="6" target="61" edge="1">
                    <mxGeometry width="50" height="50" relative="1" as="geometry">
                        <mxPoint x="65" y="1040" as="sourcePoint"/>
                        <mxPoint x="290" y="1245" as="targetPoint"/>
                    </mxGeometry>
                </mxCell>
                <mxCell id="72" value="" style="endArrow=none;dashed=1;endFill=0;endSize=12;html=1;exitX=0.963;exitY=0.306;exitDx=0;exitDy=0;exitPerimeter=0;entryX=0.774;entryY=0.57;entryDx=0;entryDy=0;entryPerimeter=0;" parent="1" source="61" target="8" edge="1">
                    <mxGeometry width="160" relative="1" as="geometry">
                        <mxPoint x="470" y="1069.46" as="sourcePoint"/>
                        <mxPoint x="610" y="820" as="targetPoint"/>
                    </mxGeometry>
                </mxCell>
                <mxCell id="73" value="&amp;lt;include&amp;gt;" style="text;html=1;strokeColor=none;fillColor=none;align=center;verticalAlign=middle;whiteSpace=wrap;rounded=0;rotation=-85;" parent="1" vertex="1">
                    <mxGeometry x="610" y="810" width="60" height="30" as="geometry"/>
                </mxCell>
                <mxCell id="75" value="" style="endArrow=open;endSize=12;dashed=1;html=1;entryX=0.579;entryY=0.857;entryDx=0;entryDy=0;exitX=1;exitY=0.5;exitDx=0;exitDy=0;entryPerimeter=0;" parent="1" edge="1">
                    <mxGeometry width="160" relative="1" as="geometry">
                        <mxPoint x="640.0046722824296" y="795.1241590572477" as="sourcePoint"/>
                        <mxPoint x="657.4" y="600" as="targetPoint"/>
                        <Array as="points"/>
                    </mxGeometry>
                </mxCell>
                <mxCell id="76" value="" style="endArrow=none;dashed=1;endFill=0;endSize=12;html=1;exitX=1;exitY=0.5;exitDx=0;exitDy=0;entryX=0;entryY=0.5;entryDx=0;entryDy=0;" parent="1" source="59" target="77" edge="1">
                    <mxGeometry width="160" relative="1" as="geometry">
                        <mxPoint x="430" y="586.51" as="sourcePoint"/>
                        <mxPoint x="491" y="590" as="targetPoint"/>
                    </mxGeometry>
                </mxCell>
                <mxCell id="77" value="&amp;lt;include&amp;gt;" style="text;html=1;strokeColor=none;fillColor=none;align=center;verticalAlign=middle;whiteSpace=wrap;rounded=0;rotation=0;" parent="1" vertex="1">
                    <mxGeometry x="530" y="508" width="60" height="30" as="geometry"/>
                </mxCell>
                <mxCell id="78" value="" style="endArrow=open;endSize=12;dashed=1;html=1;exitX=1;exitY=0.5;exitDx=0;exitDy=0;" parent="1" source="77" target="25" edge="1">
                    <mxGeometry width="160" relative="1" as="geometry">
                        <mxPoint x="558.9777747886721" y="532.7645713530756" as="sourcePoint"/>
                        <mxPoint x="602.0899999999999" y="564.99" as="targetPoint"/>
                        <Array as="points"/>
                    </mxGeometry>
                </mxCell>
                <mxCell id="79" value="" style="endArrow=none;dashed=1;endFill=0;endSize=12;html=1;exitX=1.013;exitY=0.406;exitDx=0;exitDy=0;exitPerimeter=0;" parent="1" source="65" edge="1">
                    <mxGeometry width="160" relative="1" as="geometry">
                        <mxPoint x="506.9950000000001" y="971.71" as="sourcePoint"/>
                        <mxPoint x="582" y="840" as="targetPoint"/>
                    </mxGeometry>
                </mxCell>
                <mxCell id="80" value="&amp;lt;include&amp;gt;" style="text;html=1;strokeColor=none;fillColor=none;align=center;verticalAlign=middle;whiteSpace=wrap;rounded=0;rotation=-85;" parent="1" vertex="1">
                    <mxGeometry x="560" y="800" width="60" height="30" as="geometry"/>
                </mxCell>
                <mxCell id="81" value="" style="endArrow=open;endSize=12;dashed=1;html=1;entryX=0.263;entryY=0.857;entryDx=0;entryDy=0;exitX=1;exitY=0.75;exitDx=0;exitDy=0;entryPerimeter=0;" parent="1" source="80" target="25" edge="1">
                    <mxGeometry width="160" relative="1" as="geometry">
                        <mxPoint x="650.0046722824295" y="805.1241590572477" as="sourcePoint"/>
                        <mxPoint x="667.4000000000001" y="610" as="targetPoint"/>
                        <Array as="points"/>
                    </mxGeometry>
                </mxCell>
                <mxCell id="82" value="" style="endArrow=none;dashed=1;endFill=0;endSize=12;html=1;exitX=1;exitY=0.5;exitDx=0;exitDy=0;" parent="1" source="64" edge="1">
                    <mxGeometry width="160" relative="1" as="geometry">
                        <mxPoint x="491.57500000000005" y="854.51" as="sourcePoint"/>
                        <mxPoint x="560" y="740" as="targetPoint"/>
                    </mxGeometry>
                </mxCell>
                <mxCell id="83" value="&amp;lt;include&amp;gt;" style="text;html=1;strokeColor=none;fillColor=none;align=center;verticalAlign=middle;whiteSpace=wrap;rounded=0;rotation=-60;" parent="1" vertex="1">
                    <mxGeometry x="542.5" y="700" width="60" height="30" as="geometry"/>
                </mxCell>
                <mxCell id="84" value="" style="endArrow=open;endSize=12;dashed=1;html=1;exitX=1;exitY=0.5;exitDx=0;exitDy=0;" parent="1" source="83" edge="1">
                    <mxGeometry width="160" relative="1" as="geometry">
                        <mxPoint x="552.5" y="605" as="sourcePoint"/>
                        <mxPoint x="630" y="590" as="targetPoint"/>
                        <Array as="points"/>
                    </mxGeometry>
                </mxCell>
                <mxCell id="88" value="" style="endArrow=none;dashed=1;endFill=0;endSize=12;html=1;exitX=0.987;exitY=0.357;exitDx=0;exitDy=0;entryX=0;entryY=0.5;entryDx=0;entryDy=0;exitPerimeter=0;" parent="1" source="60" target="89" edge="1">
                    <mxGeometry width="160" relative="1" as="geometry">
                        <mxPoint x="481.5" y="666.51" as="sourcePoint"/>
                        <mxPoint x="510" y="650" as="targetPoint"/>
                    </mxGeometry>
                </mxCell>
                <mxCell id="89" value="&amp;lt;include&amp;gt;" style="text;html=1;strokeColor=none;fillColor=none;align=center;verticalAlign=middle;whiteSpace=wrap;rounded=0;rotation=-45;" parent="1" vertex="1">
                    <mxGeometry x="520" y="660" width="55" height="40" as="geometry"/>
                </mxCell>
                <mxCell id="90" value="" style="endArrow=open;endSize=12;dashed=1;html=1;exitX=1;exitY=0.5;exitDx=0;exitDy=0;entryX=0.097;entryY=0.807;entryDx=0;entryDy=0;entryPerimeter=0;" parent="1" source="89" target="25" edge="1">
                    <mxGeometry width="160" relative="1" as="geometry">
                        <mxPoint x="552.5" y="605" as="sourcePoint"/>
                        <mxPoint x="610" y="590" as="targetPoint"/>
                        <Array as="points"/>
                    </mxGeometry>
                </mxCell>
                <mxCell id="91" value="Utilisateurr" style="shape=umlActor;verticalLabelPosition=bottom;verticalAlign=top;html=1;" parent="1" vertex="1">
                    <mxGeometry x="60" y="300" width="30" height="60" as="geometry"/>
                </mxCell>
                <mxCell id="92" value="" style="endArrow=classic;html=1;exitX=0.5;exitY=0;exitDx=0;exitDy=0;exitPerimeter=0;" parent="1" edge="1">
                    <mxGeometry width="50" height="50" relative="1" as="geometry">
                        <mxPoint x="75" y="300" as="sourcePoint"/>
                        <mxPoint x="80" y="160" as="targetPoint"/>
                    </mxGeometry>
                </mxCell>
                <mxCell id="93" value="" style="endArrow=none;html=1;entryX=0;entryY=0;entryDx=0;entryDy=0;" parent="1" target="59" edge="1">
                    <mxGeometry width="50" height="50" relative="1" as="geometry">
                        <mxPoint x="90" y="330" as="sourcePoint"/>
                        <mxPoint x="260" y="315" as="targetPoint"/>
                    </mxGeometry>
                </mxCell>
                <mxCell id="95" value="" style="endArrow=none;html=1;entryX=-0.019;entryY=0.502;entryDx=0;entryDy=0;entryPerimeter=0;" parent="1" source="91" target="12" edge="1">
                    <mxGeometry width="50" height="50" relative="1" as="geometry">
                        <mxPoint x="110" y="347.8571428571428" as="sourcePoint"/>
                        <mxPoint x="280.51695976507267" y="450.33045801136177" as="targetPoint"/>
                    </mxGeometry>
                </mxCell>
                <mxCell id="96" value="&lt;span style=&quot;color: rgb(255, 255, 255); font-family: Roboto, sans-serif; font-size: 14.6667px;&quot;&gt;voir mon profil&lt;/span&gt;" style="ellipse;whiteSpace=wrap;html=1;" parent="1" vertex="1">
                    <mxGeometry x="257.5" y="360" width="190" height="70" as="geometry"/>
                </mxCell>
                <mxCell id="97" value="" style="endArrow=none;html=1;entryX=0;entryY=0.5;entryDx=0;entryDy=0;" parent="1" target="96" edge="1">
                    <mxGeometry width="50" height="50" relative="1" as="geometry">
                        <mxPoint x="90" y="330" as="sourcePoint"/>
                        <mxPoint x="275.51695976507403" y="500.330458011362" as="targetPoint"/>
                    </mxGeometry>
                </mxCell>
                <mxCell id="101" value="" style="endArrow=none;dashed=1;endFill=0;endSize=12;html=1;exitX=1;exitY=0.5;exitDx=0;exitDy=0;entryX=0;entryY=0.5;entryDx=0;entryDy=0;" edge="1" parent="1" target="102">
                    <mxGeometry width="160" relative="1" as="geometry">
                        <mxPoint x="445.63" y="406.75" as="sourcePoint"/>
                        <mxPoint x="491.63" y="481.75" as="targetPoint"/>
                    </mxGeometry>
                </mxCell>
                <mxCell id="102" value="&amp;lt;include&amp;gt;" style="text;html=1;strokeColor=none;fillColor=none;align=center;verticalAlign=middle;whiteSpace=wrap;rounded=0;rotation=0;" vertex="1" parent="1">
                    <mxGeometry x="530.63" y="399.75" width="60" height="30" as="geometry"/>
                </mxCell>
                <mxCell id="103" value="" style="endArrow=open;endSize=12;dashed=1;html=1;exitX=1;exitY=0.5;exitDx=0;exitDy=0;" edge="1" parent="1" source="102" target="25">
                    <mxGeometry width="160" relative="1" as="geometry">
                        <mxPoint x="559.6077747886721" y="424.51457135307555" as="sourcePoint"/>
                        <mxPoint x="624.3650105893856" y="430.000497581281" as="targetPoint"/>
                        <Array as="points"/>
                    </mxGeometry>
                </mxCell>
            </root>
        </mxGraphModel>
    </diagram>
</mxfile>